<svg xmlns="http://www.w3.org/2000/svg" viewBox="22.0235 10.0678 1289 1049">
	<path d="M66.601837,775.588379   C173.760834,638.842468 280.685913,502.367584 387.618500,365.898560   C479.656433,248.438293 571.702637,130.984543 663.747864,13.529939   C664.564331,12.488037 665.415894,11.473533 666.558655,10.067848   C881.216125,284.007294 1095.719604,557.750183 1310.787842,832.213684   C1251.474487,832.213684 1193.103516,832.213684 1133.321533,832.213684   C1192.799683,908.134583 1251.537598,983.110718 1310.680298,1058.603516   C881.137878,1058.603516 452.153473,1058.603516 22.324604,1058.603516   C81.348129,983.263245 140.099335,908.270630 199.483246,832.470337   C140.130722,832.470337 81.651352,832.470337 22.023457,832.470337   C37.296486,812.974792 51.833820,794.418396 66.601837,775.588379  M1155.368286,968.119690   C1120.862183,924.080750 1086.337769,880.055969 1051.898804,835.964600   C1050.001831,833.535889 1048.177979,832.350769 1044.922119,832.351868   C792.645996,832.439514 540.369812,832.424133 288.093719,832.563110   C285.884613,832.564331 282.934570,833.957703 281.575989,835.682312   C241.801376,886.170410 202.184937,936.783081 162.546799,987.378662   C161.380112,988.867798 160.252640,990.387634 158.800171,992.296265   C497.599243,992.296265 835.562378,992.296265 1174.255005,992.296265   C1167.843994,984.073059 1161.837769,976.369019 1155.368286,968.119690  M906.039917,423.455902   C826.256470,321.629639 746.473022,219.803360 666.503967,117.740189   C497.188477,333.816284 328.102356,549.599670 158.532959,765.999756   C189.490204,765.999756 219.454468,766.045654 249.417404,765.867310   C250.952301,765.858215 252.863342,764.227722 253.949432,762.842590   C378.281830,604.281311 502.552490,445.671631 626.826477,287.064545   C639.965942,270.295105 653.104797,253.525223 666.469666,236.467422   C667.824829,238.161896 668.967102,239.564804 670.082703,240.988586   C806.372986,414.932159 942.666748,588.872925 1078.890503,762.868469   C1080.737915,765.228088 1082.552612,766.080200 1085.503296,766.068237   C1113.498779,765.954346 1141.495117,766.000366 1169.491089,766.000366   C1170.886475,766.000366 1172.281860,766.000366 1173.954712,766.000366   C1173.536255,765.121704 1173.452881,764.817322 1173.273438,764.588318   C1084.350342,651.057983 995.420654,537.532654 906.039917,423.455902  M457.925079,610.415100   C417.464203,662.044861 377.003357,713.674622 335.997437,765.999878   C376.236053,765.999878 415.219482,766.046936 454.201660,765.851562   C456.021271,765.842468 458.316589,764.051208 459.573975,762.449219   C519.203186,686.476257 578.740479,610.431213 638.292480,534.397705   C647.612854,522.497925 656.953247,510.613800 666.425903,498.541962   C667.642212,499.998901 668.628906,501.117706 669.547424,502.289948   C737.327759,588.800232 805.120239,675.301086 872.805908,761.885437   C875.205933,764.955627 877.609680,766.101440 881.469177,766.086182   C917.961609,765.941345 954.454895,766.000000 990.947937,766.000000   C992.666565,766.000000 994.385193,766.000000 997.003174,766.000000   C886.448303,624.896118 776.593506,484.685730 666.502136,344.173492   C596.966492,432.920593 527.655273,521.381287 457.925079,610.415100  M774.481201,744.013916   C738.561462,698.163818 702.641724,652.313782 666.498474,606.178345   C624.769897,659.446350 583.330627,712.344971 541.485962,765.761169   C625.085144,765.761169 707.916931,765.761169 791.469971,765.761169   C785.702087,758.366638 780.319214,751.465820 774.481201,744.013916  z
" fill="#FFFFFF"/>
</svg>